<?xml version="1.0" encoding="UTF-8"?>
<!DOCTYPE svg PUBLIC "-//W3C//DTD SVG 1.1//EN" "http://www.w3.org/Graphics/SVG/1.1/DTD/svg11.dtd">
<!-- Creator: CorelDRAW (Versão de avaliação) -->
<svg xmlns="http://www.w3.org/2000/svg" xml:space="preserve" width="48px" height="48px" version="1.1" style="shape-rendering:geometricPrecision; text-rendering:geometricPrecision; image-rendering:optimizeQuality; fill-rule:evenodd; clip-rule:evenodd"
viewBox="0 0 45.98 45.98"
 xmlns:xlink="http://www.w3.org/1999/xlink"
 xmlns:xodm="http://www.corel.com/coreldraw/odm/2003">
 <defs>
  <style type="text/css">
   <![CDATA[
    .fil0 {fill:#ED282E}
    .fil1 {fill:white}
   ]]>
  </style>
 </defs>
 <g id="Camada_x0020_1">
  <metadata id="CorelCorpID_0Corel-Layer"/>
  <polygon class="fil0" points="0,45.98 45.98,45.98 45.98,0 0,0 "/>
  <path class="fil1" d="M11.36 8.6l0 3.31 20.92 0c0.12,2.35 0,5.22 0,7.68l0.04 13.84c-5.94,0 -11.89,0 -17.84,0 -0.83,0 -1.73,-0.06 -2.53,0.04l0 6.25 3.54 0 0 -2.62c0,-0.1 0.04,-0.13 0.14,-0.13l20.19 0 0 -28.37c-0.12,-0.02 -0.18,-0.05 -0.28,-0.05l-24 0c-0.16,0 -0.07,0 -0.18,0.05z"/>
  <polygon class="fil1" points="11.36,31.22 21.98,31.22 21.98,20.55 11.36,20.55 "/>
  <polygon class="fil1" points="11.36,18.39 25.24,18.39 25.24,31.22 28.92,31.22 28.92,14.8 11.36,14.8 "/>
 </g>
</svg>
