<?xml version="1.0" encoding="UTF-8"?>
<!DOCTYPE svg PUBLIC "-//W3C//DTD SVG 1.1//EN" "http://www.w3.org/Graphics/SVG/1.1/DTD/svg11.dtd">
<!-- Creator: CorelDRAW (Versão de avaliação) -->
<svg xmlns="http://www.w3.org/2000/svg" xml:space="preserve" width="180px" height="180px" version="1.1" style="shape-rendering:geometricPrecision; text-rendering:geometricPrecision; image-rendering:optimizeQuality; fill-rule:evenodd; clip-rule:evenodd"
viewBox="0 0 172.41 172.41"
 xmlns:xlink="http://www.w3.org/1999/xlink"
 xmlns:xodm="http://www.corel.com/coreldraw/odm/2003">
 <defs>
  <style type="text/css">
   <![CDATA[
    .fil0 {fill:#ED282E}
    .fil1 {fill:white}
   ]]>
  </style>
 </defs>
 <g id="Camada_x0020_1">
  <metadata id="CorelCorpID_0Corel-Layer"/>
  <polygon class="fil0" points="0,172.41 172.41,172.41 172.41,0 0,0 "/>
  <path class="fil1" d="M42.59 32.24l0 12.42 78.44 0c0.47,8.83 0.02,19.58 0.03,28.79l0.14 51.89c-22.29,0 -44.6,0 -66.89,0 -3.13,0 -6.51,-0.21 -9.48,0.18l0 23.45 13.27 0 0 -9.83c0,-0.4 0.12,-0.52 0.52,-0.52l75.69 0 0 -106.38c-0.42,-0.06 -0.65,-0.17 -1.03,-0.17l-90 0c-0.6,0 -0.25,0.01 -0.69,0.17z"/>
  <polygon class="fil1" points="42.59,117.07 82.41,117.07 82.41,77.07 42.59,77.07 "/>
  <polygon class="fil1" points="42.59,68.97 94.65,68.97 94.65,117.07 108.45,117.07 108.45,55.52 42.59,55.52 "/>
 </g>
</svg>
