<?xml version="1.0" encoding="UTF-8"?>
<!DOCTYPE svg PUBLIC "-//W3C//DTD SVG 1.1//EN" "http://www.w3.org/Graphics/SVG/1.1/DTD/svg11.dtd">
<!-- Creator: CorelDRAW (Versão de avaliação) -->
<svg xmlns="http://www.w3.org/2000/svg" xml:space="preserve" width="512px" height="512px" version="1.1" style="shape-rendering:geometricPrecision; text-rendering:geometricPrecision; image-rendering:optimizeQuality; fill-rule:evenodd; clip-rule:evenodd"
viewBox="0 0 490.42 490.42"
 xmlns:xlink="http://www.w3.org/1999/xlink"
 xmlns:xodm="http://www.corel.com/coreldraw/odm/2003">
 <defs>
  <style type="text/css">
   <![CDATA[
    .fil0 {fill:#ED282E}
    .fil1 {fill:white}
   ]]>
  </style>
 </defs>
 <g id="Camada_x0020_1">
  <metadata id="CorelCorpID_0Corel-Layer"/>
  <polygon class="fil0" points="0,490.42 490.42,490.42 490.42,0 0,0 "/>
  <path class="fil1" d="M121.13 91.71l0 35.31 223.15 0c1.33,25.12 0.03,55.7 0.07,81.9l0.39 147.62c-63.4,0 -126.85,0 -190.26,0 -8.9,0 -18.53,-0.6 -26.97,0.49l0 66.69 37.76 0 0 -27.95c0,-1.13 0.34,-1.47 1.47,-1.47l215.3 0 0 -302.59c-1.21,-0.18 -1.84,-0.49 -2.94,-0.49l-256 0c-1.71,0 -0.72,0.03 -1.97,0.49z"/>
  <polygon class="fil1" points="121.13,333 234.42,333 234.42,219.22 121.13,219.22 "/>
  <polygon class="fil1" points="121.13,196.17 269.24,196.17 269.24,333 308.47,333 308.47,157.92 121.13,157.92 "/>
 </g>
</svg>
