<?xml version="1.0" encoding="UTF-8"?>
<!DOCTYPE svg PUBLIC "-//W3C//DTD SVG 1.1//EN" "http://www.w3.org/Graphics/SVG/1.1/DTD/svg11.dtd">
<!-- Creator: CorelDRAW (Versão de avaliação) -->
<svg xmlns="http://www.w3.org/2000/svg" xml:space="preserve" width="192px" height="192px" version="1.1" style="shape-rendering:geometricPrecision; text-rendering:geometricPrecision; image-rendering:optimizeQuality; fill-rule:evenodd; clip-rule:evenodd"
viewBox="0 0 183.91 183.91"
 xmlns:xlink="http://www.w3.org/1999/xlink"
 xmlns:xodm="http://www.corel.com/coreldraw/odm/2003">
 <defs>
  <style type="text/css">
   <![CDATA[
    .fil0 {fill:#ED282E}
    .fil1 {fill:white}
   ]]>
  </style>
 </defs>
 <g id="Camada_x0020_1">
  <metadata id="CorelCorpID_0Corel-Layer"/>
  <polygon class="fil0" points="0,183.91 183.91,183.91 183.91,0 0,0 "/>
  <path class="fil1" d="M45.43 34.39l0 13.24 83.67 0c0.5,9.42 0.01,20.89 0.03,30.71l0.15 55.36c-23.78,0 -47.57,0 -71.35,0 -3.34,0 -6.95,-0.22 -10.11,0.18l0 25.02 14.16 0 0 -10.49c0,-0.42 0.12,-0.55 0.55,-0.55l80.73 0 0 -113.47c-0.45,-0.07 -0.69,-0.18 -1.1,-0.18l-96 0c-0.64,0 -0.27,0.01 -0.73,0.18z"/>
  <polygon class="fil1" points="45.43,124.87 87.91,124.87 87.91,82.21 45.43,82.21 "/>
  <polygon class="fil1" points="45.43,73.56 100.97,73.56 100.97,124.87 115.68,124.87 115.68,59.22 45.43,59.22 "/>
 </g>
</svg>
