<?xml version="1.0" encoding="UTF-8"?>
<!DOCTYPE svg PUBLIC "-//W3C//DTD SVG 1.1//EN" "http://www.w3.org/Graphics/SVG/1.1/DTD/svg11.dtd">
<!-- Creator: CorelDRAW (Versão de avaliação) -->
<svg xmlns="http://www.w3.org/2000/svg" xml:space="preserve" width="16px" height="16px" version="1.1" style="shape-rendering:geometricPrecision; text-rendering:geometricPrecision; image-rendering:optimizeQuality; fill-rule:evenodd; clip-rule:evenodd"
viewBox="0 0 15.33 15.33"
 xmlns:xlink="http://www.w3.org/1999/xlink"
 xmlns:xodm="http://www.corel.com/coreldraw/odm/2003">
 <defs>
  <style type="text/css">
   <![CDATA[
    .fil0 {fill:#ED282E}
    .fil1 {fill:white}
   ]]>
  </style>
 </defs>
 <g id="Camada_x0020_1">
  <metadata id="CorelCorpID_0Corel-Layer"/>
  <polygon class="fil0" points="0,15.33 15.33,15.33 15.33,0 0,0 "/>
  <path class="fil1" d="M3.79 2.87l0 1.1 6.97 0c0.04,0.78 0,1.74 0,2.56l0.01 4.61c-1.98,0 -3.96,0 -5.94,0 -0.28,0 -0.58,-0.02 -0.85,0.02l0 2.08 1.18 0 0 -0.87c0,-0.04 0.02,-0.05 0.05,-0.05l6.73 0 0 -9.45c-0.04,-0.01 -0.06,-0.02 -0.09,-0.02l-8 0c-0.06,0 -0.03,0 -0.06,0.02z"/>
  <polygon class="fil1" points="3.79,10.41 7.33,10.41 7.33,6.85 3.79,6.85 "/>
  <polygon class="fil1" points="3.79,6.13 8.41,6.13 8.41,10.41 9.64,10.41 9.64,4.93 3.79,4.93 "/>
 </g>
</svg>
