<?xml version="1.0" encoding="UTF-8"?>
<!DOCTYPE svg PUBLIC "-//W3C//DTD SVG 1.1//EN" "http://www.w3.org/Graphics/SVG/1.1/DTD/svg11.dtd">
<!-- Creator: CorelDRAW (Versão de avaliação) -->
<svg xmlns="http://www.w3.org/2000/svg" xml:space="preserve" width="135.755mm" height="41.1518mm" version="1.1" style="shape-rendering:geometricPrecision; text-rendering:geometricPrecision; image-rendering:optimizeQuality; fill-rule:evenodd; clip-rule:evenodd"
viewBox="0 0 13560.02 4110.47"
 xmlns:xlink="http://www.w3.org/1999/xlink"
 xmlns:xodm="http://www.corel.com/coreldraw/odm/2003">
 <defs>
  <style type="text/css">
   <![CDATA[
    .fil3 {fill:#ED282E}
    .fil0 {fill:black}
    .fil2 {fill:#6D6C71}
    .fil4 {fill:#ED282E;fill-rule:nonzero}
    .fil1 {fill:#6D6C71;fill-rule:nonzero}
   ]]>
  </style>
 </defs>
 <g id="Camada_x0020_1">
  <metadata id="CorelCorpID_0Corel-Layer"/>
  <g id="_393538728">
   <path class="fil0" d="M10914.78 1607.03c-16.91,-76.11 0,-363.65 0,-465.14 0,-219.88 -42.28,-262.17 186.06,-262.17 228.34,0 186.06,59.2 186.06,270.63 0,152.23 0,312.9 -8.46,456.68l-363.65 0 0 0zm304.45 270.62c42.29,0 50.74,-8.46 59.2,33.83 16.91,143.77 -42.28,279.08 135.32,279.08 465.13,8.45 397.48,16.91 397.48,-439.77 0,-135.32 0,-279.08 0,-414.4 8.46,-236.79 67.65,-549.7 -160.69,-676.56 -126.85,-67.65 -202.97,-50.74 -355.19,-50.74 -143.77,0 -287.53,0 -422.85,0 -160.69,0 -228.34,-16.91 -355.19,67.65 -186.06,118.4 -143.77,422.86 -143.77,685.02 -8.46,143.78 -8.46,279.08 -8.46,422.86 0,101.48 -25.37,321.36 42.28,380.56 42.29,33.82 329.82,33.82 397.48,25.37 135.31,-25.37 76.11,-194.52 101.48,-312.91l312.9 0 0 0z"/>
   <path class="fil0" d="M8622.94 2156.73c59.19,33.83 50.74,42.28 135.31,42.28 312.91,0 296,8.46 296,-228.34 0,-228.34 16.91,-482.05 0,-710.39 135.31,211.43 321.36,591.99 439.76,820.33 59.2,101.48 50.74,118.39 194.52,126.85 397.48,0 405.94,33.83 405.94,-228.34 0,-312.91 0,-625.81 0,-938.73 0,-414.4 50.74,-414.4 -194.52,-414.4 -101.48,0 -219.88,-25.37 -236.79,76.11 -25.37,118.4 8.45,727.31 -16.92,921.81 -160.68,-287.54 -304.45,-617.36 -465.13,-904.89 -59.2,-118.4 -93.03,-101.48 -304.45,-101.48 -236.8,0 -245.26,-33.83 -245.26,202.97l-8.45 887.98c0,126.85 -8.46,329.82 0,448.22l0 0z"/>
   <path class="fil0" d="M12606.18 1750.8c0,-143.77 0,-279.08 0,-422.85 8.45,-473.6 -42.29,-456.68 177.6,-448.23 42.28,0 169.14,-8.45 194.51,8.46 59.2,50.74 -42.28,270.62 109.94,312.91 50.74,8.45 355.19,16.91 397.48,-8.46 93.02,-33.83 84.57,-219.88 50.74,-329.82 -76.11,-287.54 -346.73,-253.71 -558.16,-253.71l-397.48 0c-186.06,0 -304.45,-25.37 -422.86,118.39 -67.65,76.11 -76.11,160.69 -84.56,287.54 0,245.25 -8.46,490.51 -8.46,735.76 0,456.68 236.8,439.77 566.62,439.77l515.87 8.45c186.06,0 287.54,-50.74 363.65,-177.6 42.28,-84.56 33.83,-126.85 33.83,-219.88 8.45,-253.71 42.28,-295.99 -211.43,-295.99 -67.65,0 -186.06,-8.46 -245.25,0 -160.69,16.91 -67.66,262.16 -109.94,389.01 -76.11,25.37 -304.45,25.37 -363.65,-8.45l-8.45 -135.32 0 0z"/>
   <path class="fil0" d="M4775 837.44c84.57,-8.46 219.89,-8.46 304.45,0 109.94,8.46 76.11,126.85 76.11,228.34 0,42.28 8.46,101.48 0,152.23 0,50.74 -16.91,67.65 -76.11,76.11 -76.11,8.46 -219.88,0 -304.45,-8.46l0 0c0,-143.77 0,-295.99 0,-448.22l0 0zm0 676.56c0,8.46 558.16,8.46 608.9,8.46 296,-8.46 338.28,-372.1 304.45,-600.44 -42.28,-338.28 -363.64,-312.91 -591.98,-312.91 -194.52,0 -397.48,0 -600.45,0 -304.45,0 -262.16,-25.37 -270.62,338.28 0,372.1 0,744.21 0,1124.77 0,50.74 25.37,118.4 76.11,118.4l389.02 0c42.28,0 84.56,-67.66 84.56,-118.4l0 -558.16 0 0 0 0zm-549.7 617.36c0,8.46 8.46,16.91 8.46,16.91 0,0 0,8.46 8.45,8.46 -8.45,-8.46 -8.45,-16.91 -16.91,-25.37l0 0z"/>
   <path class="fil0" d="M6415.67 1894.56c-16.92,-109.93 0,-414.39 0,-549.7 8.45,-854.15 76.11,-744.22 -321.37,-744.22 -101.48,0 -194.51,-25.37 -202.97,76.11 -8.45,84.57 0,186.06 0,270.63 -8.45,355.19 -8.45,718.84 -8.45,1082.49 -8.46,109.94 0,143.77 126.85,152.23 160.68,0 701.93,8.46 811.87,0 0,-202.97 33.82,-287.54 -126.85,-287.54l-279.08 0 0 0z"/>
   <path class="fil0" d="M7565.81 1598.57c-16.91,-84.57 -8.45,-363.65 -8.45,-465.14 0,-50.74 0,-93.02 0,-126.85 0,-109.93 16.91,-135.31 194.51,-135.31 228.34,0 177.6,59.19 177.6,270.62 0,152.23 8.46,312.91 0,456.68l-363.65 0 0 0zm296 262.17c42.28,0 59.19,-8.46 67.65,33.82 8.46,143.78 -42.28,287.54 135.32,287.54 465.13,8.46 397.48,16.91 397.48,-439.77 0,-135.31 0,-279.08 0,-414.39 0,-236.8 59.2,-549.71 -160.69,-676.57 -126.85,-67.65 -202.97,-50.74 -363.64,-50.74 -135.32,0 -279.08,0 -414.4,0 -169.14,0 -228.34,-16.91 -355.19,67.66 -186.06,118.39 -152.23,422.85 -152.23,685.02 0,143.77 0,279.08 0,422.85 0,101.48 -25.37,321.36 42.28,380.56 42.29,33.83 321.37,33.83 397.48,16.91 135.31,-16.91 76.11,-186.05 93.02,-312.9l312.91 0z"/>
  </g>
  <g id="_393902712">
   <path class="fil1" d="M5088.1 3511.65c0,6.72 4.29,11.23 10.75,11.23l136.75 0c6.46,0 10.8,-4.5 10.8,-11.23l0 -739.98c0,-6.72 -4.35,-11.23 -10.8,-11.23l-136.75 0c-6.46,0 -10.75,4.5 -10.75,11.23l0 739.98z"/>
   <path class="fil1" d="M6566.36 3522.87c6.46,0 10.8,-4.5 10.8,-11.23l0 -584.49c0,-4.5 2.17,-6.72 6.46,-6.72l185.25 0c6.46,0 10.75,-4.5 10.75,-11.23l0 -130.71c0,-6.72 -4.35,-11.23 -10.75,-11.23l-541.71 0c-6.46,0 -10.75,4.5 -10.75,11.23l0 130.71c0,6.72 4.29,11.23 10.75,11.23l185.25 0c4.29,0 6.46,2.23 6.46,6.72l0 584.49c0,6.72 4.29,11.23 10.75,11.23l136.75 0 -0.01 0z"/>
   <path class="fil1" d="M7877.7 3511.65c0,6.72 4.29,11.23 10.75,11.23l136.8 0c6.46,0 10.75,-4.5 10.75,-11.23l0 -739.98c0,-6.72 -4.35,-11.23 -10.75,-11.23l-136.8 0c-6.46,0 -10.75,4.5 -10.75,11.23l0 739.98z"/>
   <path class="fil1" d="M8355.83 3511.65c0,6.72 4.35,11.23 10.8,11.23l277.84 0c158.3,0 254.18,-71.74 254.18,-221.99 0,-90.8 -49.55,-153.58 -98,-172.64l0 -2.23c48.44,-28.01 85.08,-79.63 85.08,-162.58 0,-121.08 -74.33,-202.93 -233.69,-202.93l-285.41 0c-6.46,0 -10.8,4.5 -10.8,11.23l0 739.98 0 -0.07zm157.35 -466.27c-4.13,0 -6.19,-1.48 -6.19,-4.5l0 -110.91c0,-3.02 2.07,-4.55 6.19,-4.55l107.11 0c57.65,0 91.65,12.76 91.65,59.61 0,46.27 -33.99,60.35 -91.65,60.35l-107.11 0 0 0.01zm0.58 309.13c-4.5,0 -6.72,-1.86 -6.72,-5.45l0 -134.05c0,-3.66 2.23,-5.45 6.72,-5.45l116.69 0c62.84,0 99.85,15.46 99.85,72.06 0,55.96 -37.06,72.96 -99.85,72.96l-116.69 0 0 -0.06z"/>
   <path class="fil1" d="M9409.23 3519.75c163.7,0 280.01,-87.67 280.01,-277.15l0 -470.87c0,-6.72 -4.29,-11.23 -10.75,-11.23l-136.75 0c-6.46,0 -10.8,4.5 -10.8,11.23l0 443.23c0,90.8 -48.44,142.42 -121.71,142.42 -74.33,0 -122.77,-51.57 -122.77,-142.42l0 -443.23c0,-6.72 -4.35,-11.23 -10.75,-11.23l-136.8 0c-6.46,0 -10.75,4.5 -10.75,11.23l0 470.87c0,189.48 116.32,277.15 281.07,277.15z"/>
   <path class="fil1" d="M9992.17 3511.65c0,6.72 4.29,11.23 10.75,11.23l136.8 0c6.46,0 10.75,-4.5 10.75,-11.23l0 -739.98c0,-6.72 -4.35,-11.23 -10.75,-11.23l-136.8 0c-6.46,0 -10.75,4.5 -10.75,11.23l0 739.98z"/>
   <path class="fil1" d="M10447.16 3511.65c0,6.72 4.35,11.23 10.8,11.23l272.44 0c128.17,0 217.54,-57.17 253.07,-171.53 12.92,-42.62 19.38,-85.18 19.38,-209.65 0,-124.47 -6.46,-167.04 -19.38,-209.65 -35.53,-114.36 -124.95,-171.53 -253.07,-171.53l-272.44 0c-6.46,0 -10.8,4.5 -10.8,11.23l0 739.98 0 -0.07zm163.54 -160.85l0 -422.59c0,-4.19 2.01,-6.24 5.98,-6.24l76.98 0c67.98,0 109.01,20.81 126.01,78.09 6.99,20.81 11.01,47.86 11.01,139.5 0,91.6 -4.03,118.69 -11.01,139.5 -16.99,57.23 -58.02,78.09 -126.01,78.09l-76.98 0c-4.03,0 -5.98,-2.07 -5.98,-6.24l0 -0.11z"/>
   <path class="fil1" d="M12876.38 3511.91c-2.44,6.62 0,11.23 7.52,11.23l141.09 0c7.52,0 11.39,-3.5 13.97,-11.23l40.92 -119.44 256.35 0 41.98 119.44c2.7,7.68 6.46,11.23 14.03,11.23l139.98 0c7.52,0 9.95,-4.6 7.52,-11.23l-270.91 -739.98c-2.44,-6.62 -6.46,-11.23 -14.03,-11.23l-89.9 0c-7.52,0 -11.54,4.6 -14.03,11.23l-274.62 739.98 0.12 0zm331.69 -443.6l29.17 75.7 3.45 8.89 25.73 66.86 6.83 17.79 -65.18 0 -65.18 0 6.83 -17.79 25.73 -66.86 3.45 -8.89 29.17 -75.7z"/>
   <path class="fil2" d="M11439.42 3285.42c-14.61,-45.59 -14.13,-238.56 0,-283.93 13.5,-43.47 45.37,-69.46 95.19,-69.46 49.82,0 81.69,25.99 95.19,69.46 14.13,45.43 14.61,238.3 0,283.93 -13.34,43.52 -45.37,69.46 -95.19,69.46 -49.82,0 -81.85,-25.94 -95.19,-69.46zm362.29 64.81c16.15,-52.68 20.44,-95.3 20.44,-208.54 0,-113.24 -4.29,-155.86 -20.44,-208.54 -37.7,-123.3 -138.92,-184.98 -267.09,-184.98 -128.17,0 -229.4,61.68 -267.09,184.98 -16.15,52.68 -20.49,95.3 -20.49,208.54 0,113.24 4.29,155.86 20.49,208.54 37.7,123.36 138.92,185.04 267.09,185.04 128.17,0 229.4,-61.68 267.09,-185.04z"/>
   <path class="fil1" d="M7632.1 3523.08c7.57,0 11.39,-7.04 7.57,-13.44l-180 -300.51c80.79,-37.01 144.58,-114.36 144.58,-211.93 0,-139.03 -99.11,-236.55 -248.78,-236.55l-291.88 0c-6.46,0 -10.75,4.5 -10.75,11.23l0 739.98c0,6.72 4.29,11.23 10.75,11.23l136.75 0c6.46,0 10.8,-4.5 10.8,-11.23l0 -272.44c0,-4.5 2.17,-6.72 6.46,-6.72l74.23 0 149.78 279.17c4.03,7.46 6.46,11.23 16.15,11.23l174.34 0 -0.01 -0.02zm-263.55 -463.3l-140.25 0c-4.29,0 -6.46,-2.23 -6.46,-6.72l0 -127.96c0,-4.5 2.17,-6.72 6.46,-6.72l140.25 0c94.24,0 90.8,141.41 0,141.41z"/>
   <path class="fil1" d="M4273.63 3511.65c0,6.72 4.35,11.23 10.8,11.23l272.44 0c128.17,0 217.54,-57.17 253.07,-171.53 12.92,-42.62 19.38,-85.18 19.38,-209.65 0,-124.47 -6.46,-167.04 -19.38,-209.65 -35.53,-114.36 -124.95,-171.53 -253.07,-171.53l-272.44 0c-6.46,0 -10.8,4.5 -10.8,11.23l0 739.98 0 -0.07zm163.54 -160.85l0 -422.59c0,-4.19 1.96,-6.24 5.98,-6.24l76.98 0c67.98,0 109.01,20.81 126.01,78.09 6.99,20.81 11.01,47.86 11.01,139.5 0,91.6 -4.03,118.69 -11.01,139.5 -16.99,57.23 -57.97,78.09 -126.01,78.09l-76.98 0c-4.03,0 -5.98,-2.07 -5.98,-6.24l0 -0.11z"/>
   <path class="fil1" d="M12696.22 3523.08c7.52,0 11.39,-7.04 7.52,-13.44l-180 -300.51c80.79,-37.01 144.58,-114.36 144.58,-211.93 0,-139.03 -99.11,-236.55 -248.78,-236.55l-291.88 0c-6.46,0 -10.75,4.5 -10.75,11.23l0 739.98c0,6.72 4.29,11.23 10.75,11.23l136.75 0c6.46,0 10.8,-4.5 10.8,-11.23l0 -272.44c0,-4.5 2.17,-6.72 6.46,-6.72l74.18 0 149.83 279.17c3.98,7.46 6.46,11.23 16.15,11.23l174.34 0 0.04 -0.02zm-263.6 -463.3l-140.25 0c-4.29,0 -6.46,-2.23 -6.46,-6.72l0 -127.96c0,-4.5 2.17,-6.72 6.46,-6.72l140.25 0c94.24,0 90.8,141.41 0,141.41z"/>
   <path class="fil2" d="M5961.98 2984.76l77.35 -147.55c-169,-133.95 -520.53,-128.91 -540.28,138.02 -9.16,123.62 66.76,204.47 147.55,226.12 80.85,21.66 232.04,10.7 232.04,101.17 0,90.43 -254.5,76.08 -333.59,-25.68l-84.02 139.56c127,90.38 355.19,151.79 488.92,59.35 98.37,-67.98 126.33,-211.3 64.43,-312.78 -33.25,-54.53 -91.17,-87.67 -172.59,-97.2 -38.28,-4.5 -72.22,-9.37 -99.54,-16.73 -113.77,-30.75 -84.23,-129.87 18.43,-142.26 52.31,-6.3 124.68,15.83 201.29,78.09l0.01 -0.12z"/>
  </g>
  <g id="_393945056">
   <path class="fil3" d="M25.57 14.99l3317.54 0c5.82,0 10.59,4.76 10.59,10.64l0 3648.27c0,231.88 -189.74,421.64 -421.58,421.64l-2495.39 0c-231.94,0 -421.74,-189.8 -421.74,-421.8l0 -3648.17c0,-5.82 4.76,-10.64 10.64,-10.64l-0.06 0.06zm578.29 1316.26l1548.63 0c5.82,0 10.59,4.76 10.59,10.59l0 56.44 0 0.27 0 248.41 0 0.27 0 1099.94c0,5.82 -4.76,10.64 -10.59,10.64l-310.82 0c-5.82,0 -10.59,-4.76 -10.59,-10.64l0 -1089.56 -1227.22 0c-5.87,0 -10.64,-4.76 -10.64,-10.64l0 -305.05c0,-5.82 4.76,-10.59 10.64,-10.59l0 -0.07zm379.02 1964.49l0 247.19c0,5.82 -4.76,10.64 -10.59,10.64l-310.82 0c-5.82,0 -10.59,-4.76 -10.59,-10.64l0 -257.52 0 -0.27 0 -305.05c0,-5.87 4.76,-10.64 10.59,-10.64l311.09 0 1460.64 0 0 -1870.57 -1829.28 0c-5.87,0 -10.64,-4.76 -10.64,-10.59l0 -305.11c0,-5.82 4.76,-10.64 10.64,-10.64l2150.69 0c5.87,0 10.64,4.76 10.64,10.64l0 124.95 0 0.27 0 179.9 0 0.27 0 2196.59c0,5.87 -4.76,10.64 -10.64,10.64l-188.95 0 -0.27 0 -121.56 0 -0.27 0 -1460.64 0 -0.04 -0.06zm-379.02 -1468.21l933.75 0c5.82,0 10.64,4.76 10.64,10.59l0 943.23c0,5.82 -4.76,10.64 -10.64,10.64l-933.75 0c-5.87,0 -10.64,-4.81 -10.64,-10.64l0 -943.23c0,-5.82 4.76,-10.59 10.64,-10.59z"/>
   <path class="fil4" d="M25.57 0.01l3317.54 0c7.04,0 13.5,2.92 18.05,7.52 4.6,4.65 7.52,11.07 7.52,18.11l0 3648.27c0,120.07 -49.13,229.24 -128.22,308.34 -79.1,79.1 -188.26,128.22 -308.34,128.22l-2495.39 0c-120.12,0 -229.35,-49.13 -308.45,-128.28 -79.15,-79.15 -128.28,-188.31 -128.28,-308.45l0 -3648.17c0,-6.99 2.92,-13.39 7.52,-18 4.71,-4.65 11.12,-7.57 18.11,-7.57l-0.06 0.01zm3313.2 29.92l-3308.86 0 0 3643.83c0,111.87 45.8,213.58 119.54,287.32 73.75,73.75 175.45,119.49 287.27,119.49l2495.39 0c111.81,0 213.47,-45.74 287.16,-119.49 73.7,-73.7 119.49,-175.4 119.49,-287.21l0 -3643.99 0 0.05zm-2734.86 1286.35l1548.63 0c6.93,0 13.39,2.86 18,7.52 4.71,4.71 7.57,11.12 7.57,18.05l0 1405.25c0,6.93 -2.86,13.39 -7.52,18 -4.71,4.71 -11.12,7.57 -18.05,7.57l-310.82 0c-7.04,0 -13.44,-2.86 -18.05,-7.52 -4.55,-4.55 -7.52,-11.01 -7.52,-18.05l0 -1074.63 -1212.28 0c-6.99,0 -13.44,-2.86 -18.05,-7.52 -4.65,-4.6 -7.52,-11.01 -7.52,-18.05l0 -305.05c0,-6.99 2.86,-13.39 7.52,-18 4.71,-4.71 11.12,-7.57 18.11,-7.57l-0.01 0zm1544.28 29.92l-1540 0 0 296.43 1237.85 0 0 1100.15 302.14 0 0 -1396.57 0 -0.01zm-1150.33 1964.49l0 232.2c0,7.04 -2.86,13.44 -7.52,18.11 -4.55,4.55 -11.01,7.52 -18.05,7.52l-310.82 0c-7.04,0 -13.5,-2.92 -18.05,-7.52 -4.6,-4.65 -7.52,-11.07 -7.52,-18.11l0 -562.89c0,-6.93 2.86,-13.39 7.52,-18 4.71,-4.71 11.12,-7.57 18.05,-7.57l1756.74 0 0 -1840.65 -1814.34 0c-7.09,0 -13.44,-2.86 -18.11,-7.52 -4.6,-4.65 -7.52,-11.12 -7.52,-18.05l0 -305.11c0,-6.99 2.92,-13.39 7.52,-18 4.71,-4.65 11.12,-7.57 18.11,-7.57l2150.69 0c6.99,0 13.44,2.86 18.05,7.52 4.65,4.6 7.52,11.01 7.52,18.05l0 2501.91c0,6.99 -2.86,13.39 -7.52,18 -4.71,4.71 -11.07,7.57 -18.05,7.57l-1756.74 0 0.05 0.11zm-29.92 227.91l0 -257.83 1782.31 0 0 -2493.28 -2142.06 0 0 296.43 1839.91 0 0 1900.48 -1782.31 0 0 554.21 302.14 0 0 -0.01zm-364.03 -1726.03l933.75 0c7.09,0 13.44,2.86 18.11,7.52 4.6,4.65 7.52,11.12 7.52,18.05l0 943.23c0,6.99 -2.92,13.39 -7.52,18 -4.71,4.65 -11.12,7.57 -18.11,7.57l-933.75 0c-6.99,0 -13.39,-2.92 -18,-7.52 -4.65,-4.71 -7.57,-11.12 -7.57,-18.05l0 -943.23c0,-6.93 2.86,-13.39 7.52,-18.05 4.6,-4.65 10.96,-7.52 18.05,-7.52zm929.41 29.92l-925.07 0 0 934.6 925.07 0 0 -934.6z"/>
  </g>
 </g>
</svg>
